<svg id="Ebene_1" data-name="Ebene 1" xmlns="http://www.w3.org/2000/svg" viewBox="0 0 185.6 200"><defs><style>.cls-1{fill:#1565c0;}.cls-2{fill:#0d47a1;}.cls-3{fill:#fff;}</style></defs><g id="Layer_2" data-name="Layer 2"><g id="Layer_1-2" data-name="Layer 1-2"><polygon class="cls-1" points="92.4 0 92.4 0 92.4 0 0 33.3 14 156.1 92.4 200 92.4 200 92.4 200 171.3 156.1 185.6 33.3 92.4 0"/><polygon class="cls-2" points="92.4 0 92.4 22.2 92.4 22.2 92.4 123.2 92.4 123.2 92.4 200 92.4 200 171.3 156.1 185.6 33.3 92.4 0"/><path class="cls-3" d="M113.05,103.66a29.23,29.23,0,0,0-49.21,0l-13,20.3a18.5,18.5,0,0,0,23,26.91l.24-.11a36.34,36.34,0,0,1,29,.11,18.45,18.45,0,0,0,7.42,1.57,18.78,18.78,0,0,0,4.14-.47,18.49,18.49,0,0,0,11.46-28Z"/><path class="cls-3" d="M54.34,103.63a14.16,14.16,0,0,0,8.28-8.78,18.87,18.87,0,0,0-8.56-22.23,14.21,14.21,0,0,0-12-1c-7.77,3-11.34,12.6-8,21.42,2.71,7,9,11.46,15.41,11.46A13.43,13.43,0,0,0,54.34,103.63Z"/><path class="cls-3" d="M79.58,87.73c9.72,0,17.63-9,17.63-20.08S89.3,47.56,79.58,47.56,62,56.57,62,67.65,69.87,87.73,79.58,87.73Z"/><path class="cls-3" d="M110,92.66h0a14.25,14.25,0,0,0,4.54.74c7.08,0,14-5.16,16.63-13.09a19.74,19.74,0,0,0-.28-13.59,14.9,14.9,0,0,0-22.09-7.34,19.65,19.65,0,0,0-8.36,10.72C97.27,79.72,101.56,89.85,110,92.66Z"/><path class="cls-3" d="M147.15,90.32h0c-6.7-4.95-16.72-2.81-22.34,4.78s-4.74,17.81,2,22.76a13.79,13.79,0,0,0,8.28,2.68,17.83,17.83,0,0,0,14.07-7.46C154.72,105.49,153.84,95.28,147.15,90.32Z"/></g></g></svg>